# xmcd
#
# Track frame offsets:
#       150
#       30213
#       44043
#       75763
#       101588
#       113263
#       133038
#       161088
#       185500
#       242175
#       256888
#       291163
#
# Disc length: 4423 seconds
#
# Revision: 0
# Processed by: cddbd v1.4PL0 Copyright (c) Steve Scherf et al.
# Submitted via: CD-DA_X-Tractor v0.21
#
DISCID=9511450c
DTITLE=Tom Waits - Cold Beer on a Hot Night
DYEAR=1900
DGENRE=
TTITLE0=Romeo Is Bleeding
TTITLE1=Annie's Back In Town
TTITLE2=Jitterbug Boy - Better Off Without A Wife
TTITLE3=I Wish I Was In New Orleans
TTITLE4=Since I Fell For You (L. Welch)
TTITLE5=Red Shoes
TTITLE6=Silent Night (Traditional) - XMas Card From A Hooker In Minneapolis
TTITLE7=Do The Hokey Cokey (Traditional)
TTITLE8=Pasties And A G String
TTITLE9=Burma Shave
TTITLE10=Tom Traubert's Blues
TTITLE11=Small Change - Big Spender (Coleman-Fields)
EXTD=
EXTT0=
EXTT1=
EXTT2=
EXTT3=
EXTT4=
EXTT5=
EXTT6=
EXTT7=
EXTT8=
EXTT9=
EXTT10=
EXTT11=
PLAYORDER=
